<?xml version="1.0" encoding="utf-8"?>
<!-- Generator: Adobe Illustrator 16.1.0, SVG Export Plug-In . SVG Version: 6.00 Build 0)  -->
<!DOCTYPE svg PUBLIC "-//W3C//DTD SVG 1.1//EN" "http://www.w3.org/Graphics/SVG/1.1/DTD/svg11.dtd">
<svg version="1.1" id="Layer_1" xmlns="http://www.w3.org/2000/svg" xmlns:xlink="http://www.w3.org/1999/xlink" x="0px" y="0px"
	 width="48px" height="48px" viewBox="0 0 48 48" enable-background="new 0 0 48 48" xml:space="preserve">
 <g>
  <ellipse stroke="#fff" ry="2.75" rx="2.75" id="svg_1" cy="9.666667" cx="8.5" stroke-width="0" fill="#000"/>
  <ellipse stroke="#fff" ry="2.75" rx="2.75" id="svg_2" cy="6.833333" cx="21.5" stroke-width="0" fill="#000"/>
  <ellipse stroke="#fff" ry="1.833333" rx="1.833333" id="svg_3" cy="17.083333" cx="17.916667" stroke-width="0" fill="#000"/>
  <ellipse stroke="#fff" ry="2.75" rx="2.75" id="svg_4" cy="34.999999" cx="39.333334" stroke-width="0" fill="#000"/>
  <ellipse stroke="#fff" ry="2.75" rx="2.75" id="svg_6" cy="40.666666" cx="29.166667" stroke-width="0" fill="#000"/>
  <ellipse stroke="#fff" ry="1.833333" rx="1.833333" id="svg_7" cy="31.916667" cx="31.083335" stroke-width="0" fill="#000"/>
  <ellipse stroke="#fff" ry="2.75" rx="2.75" id="svg_8" cy="33.166666" cx="15.833334" stroke-width="0" fill="#000"/>
  <ellipse stroke="#fff" ry="1.833333" rx="1.833333" id="svg_9" cy="26.25" cx="22.750001" stroke-width="0" fill="#000"/>
  <line stroke-linecap="null" stroke-linejoin="null" id="svg_11" y2="26.916667" x2="22.583333" y1="31.25" x1="17.583333" stroke="#000" fill="none"/>
  <line stroke-linecap="null" stroke-linejoin="null" id="svg_12" y2="26.583333" x2="23.916667" y1="31.25" x1="30.25" stroke="#000" fill="none"/>
  <line stroke-linecap="null" stroke-linejoin="null" id="svg_13" y2="25.083333" x2="22.083333" y1="17.583333" x1="18.25" stroke="#000" fill="none"/>
  <line stroke-linecap="null" stroke-linejoin="null" id="svg_14" y2="16.416667" x2="17.25" y1="10.75" x1="9.583333" stroke="#000" fill="none"/>
  <line stroke-linecap="null" stroke-linejoin="null" id="svg_15" y2="15.75" x2="18.083333" y1="7.75" x1="21.75" stroke="#000" fill="none"/>
  <line stroke-linecap="null" stroke-linejoin="null" id="svg_16" y2="40.583333" x2="28.75" y1="32.416667" x1="30.75" stroke="#000" fill="none"/>
  <line stroke-linecap="null" stroke-linejoin="null" id="svg_17" y2="31.75" x2="29.75" y1="33.916667" x1="38.083333" stroke="#000" fill="none"/>
 </g>
</svg>
